<?xml version="1.0" encoding="UTF-8" standalone="no"?>
<!-- Created with Inkscape (http://www.inkscape.org/) -->

<svg
   version="1.1"
   id="svg1"
   width="491.84"
   height="148.33333"
   viewBox="0 0 491.84 148.33333"
   sodipodi:docname="5_BL_Horiz_Tile.svg"
   inkscape:version="1.3.2 (091e20e, 2023-11-25)"
   xmlns:inkscape="http://www.inkscape.org/namespaces/inkscape"
   xmlns:sodipodi="http://sodipodi.sourceforge.net/DTD/sodipodi-0.dtd"
   xmlns="http://www.w3.org/2000/svg"
   xmlns:svg="http://www.w3.org/2000/svg">
  <defs
     id="defs1" />
  <sodipodi:namedview
     id="namedview1"
     pagecolor="#ffffff"
     bordercolor="#000000"
     borderopacity="0.25"
     inkscape:showpageshadow="2"
     inkscape:pageopacity="0.0"
     inkscape:pagecheckerboard="0"
     inkscape:deskcolor="#d1d1d1"
     inkscape:zoom="1.5910113"
     inkscape:cx="245.75564"
     inkscape:cy="74.166663"
     inkscape:window-width="1408"
     inkscape:window-height="449"
     inkscape:window-x="47"
     inkscape:window-y="84"
     inkscape:window-maximized="0"
     inkscape:current-layer="g1">
    <inkscape:page
       x="0"
       y="0"
       inkscape:label="1"
       id="page1"
       width="491.84"
       height="148.33333"
       margin="0"
       bleed="0" />
  </sodipodi:namedview>
  <g
     id="g1"
     inkscape:groupmode="layer"
     inkscape:label="1">
    <g
       id="group-R5">
      <path
         id="path2"
         d="m 199.25,910.879 h 999.99 V 201.414 H 199.25 v 709.465"
         style="fill:#162d37;fill-opacity:1;fill-rule:nonzero;stroke:none"
         transform="matrix(0.13333333,0,0,-0.13333333,0,148.33333)" />
      <path
         id="path3"
         d="m 1067.19,201.18 h -19.08 v 336.933 l -50.063,68.09 -50.07,-68.09 V 201.18 h -19.079 v 343.195 l 69.149,94.027 69.143,-94.027 V 201.18"
         style="fill:#ffffff;fill-opacity:1;fill-rule:nonzero;stroke:none"
         transform="matrix(0.13333333,0,0,-0.13333333,0,148.33333)" />
      <path
         id="path4"
         d="m 329.934,456.688 h 33.754 v 12.656 h -64.934 v -46.453 h 31.18 v 33.797"
         style="fill:#ffffff;fill-opacity:1;fill-rule:nonzero;stroke:none"
         transform="matrix(0.13333333,0,0,-0.13333333,0,148.33333)" />
      <path
         id="path5"
         d="m 419.43,456.688 h 33.761 v 12.656 H 388.25 v -46.453 h 31.18 v 33.797"
         style="fill:#ffffff;fill-opacity:1;fill-rule:nonzero;stroke:none"
         transform="matrix(0.13333333,0,0,-0.13333333,0,148.33333)" />
      <path
         id="path6"
         d="m 508.934,456.688 h 33.757 v 12.656 h -64.937 v -46.453 h 31.18 v 33.797"
         style="fill:#ffffff;fill-opacity:1;fill-rule:nonzero;stroke:none"
         transform="matrix(0.13333333,0,0,-0.13333333,0,148.33333)" />
      <path
         id="path7"
         d="m 598.43,456.688 h 33.761 v 12.656 H 567.25 v -46.453 h 31.18 v 33.797"
         style="fill:#ffffff;fill-opacity:1;fill-rule:nonzero;stroke:none"
         transform="matrix(0.13333333,0,0,-0.13333333,0,148.33333)" />
      <path
         id="path8"
         d="m 687.934,456.688 h 33.757 v 12.656 H 656.75 v -46.453 h 31.184 v 33.797"
         style="fill:#ffffff;fill-opacity:1;fill-rule:nonzero;stroke:none"
         transform="matrix(0.13333333,0,0,-0.13333333,0,148.33333)" />
      <path
         id="path9"
         d="m 777.434,456.688 h 33.754 v 12.656 H 746.25 v -46.453 h 31.184 v 33.797"
         style="fill:#ffffff;fill-opacity:1;fill-rule:nonzero;stroke:none"
         transform="matrix(0.13333333,0,0,-0.13333333,0,148.33333)" />
      <path
         id="path10"
         d="m 546.066,741.914 -8.476,4.871 -8.649,-4.972 -70.711,-38.27 v -26.375 l 79.364,42.957 79.363,-42.957 v 26.375 l -70.891,38.371"
         style="fill:#ffffff;fill-opacity:1;fill-rule:nonzero;stroke:none"
         transform="matrix(0.13333333,0,0,-0.13333333,0,148.33333)" />
      <path
         id="path11"
         d="m 819.551,542.742 c -78.227,75.383 -180.93,116.844 -289.77,116.844 -85.437,0 -167.578,-25.609 -237.547,-74.059 l -10.351,-7.203 V 550 l 23.558,16.453 c 66.071,45.758 143.649,69.938 224.34,69.938 104.309,0 202.645,-40.309 276.891,-113.5 2.18,-2.145 5.098,-3.344 8.144,-3.344 h 41.11 V 222.246 212.781 201.18 h 23.199 v 11.601 9.465 320.496 h -59.574"
         style="fill:#ffffff;fill-opacity:1;fill-rule:nonzero;stroke:none"
         transform="matrix(0.13333333,0,0,-0.13333333,0,148.33333)" />
      <path
         id="path12"
         d="M 991.746,422.891 H 970.98 v 79.148 h 20.766 v -79.148"
         style="fill:#ffffff;fill-opacity:1;fill-rule:nonzero;stroke:none"
         transform="matrix(0.13333333,0,0,-0.13333333,0,148.33333)" />
      <path
         id="path13"
         d="m 1027.13,422.891 h -20.77 v 79.148 h 20.77 v -79.148"
         style="fill:#ffffff;fill-opacity:1;fill-rule:nonzero;stroke:none"
         transform="matrix(0.13333333,0,0,-0.13333333,0,148.33333)" />
      <path
         id="path14"
         d="m 1365.56,238.672 h 32.56 c 8.5,0 19.35,-0.586 26.69,4.394 6.74,4.403 10.55,12.618 10.55,20.829 0,7.617 -4.69,15.539 -11.43,19.355 -6.75,3.809 -16.13,3.809 -23.76,3.809 h -34.61 z m 0,84.168 h 31.97 c 8.21,0 17.89,-0.586 24.93,4.687 5.57,4.114 8.5,11.446 8.5,18.184 0,7.336 -3.52,14.375 -9.97,18.184 -6.74,3.82 -19.06,2.941 -26.98,2.941 h -28.45 z m 43.11,79.765 c 15.84,0 32.27,0 46.05,-8.796 16.13,-10.266 24.63,-24.922 24.63,-43.985 0,-22.883 -15.25,-38.125 -36.36,-43.41 v -0.586 c 24.93,-4.98 41.93,-24.043 41.93,-50.144 0,-17.598 -10.55,-33.145 -24.63,-43.411 -14.66,-10.847 -34.31,-10.847 -51.62,-10.847 h -90.03 v 201.179 h 90.03"
         style="fill:#162d37;fill-opacity:1;fill-rule:nonzero;stroke:none"
         transform="matrix(0.13333333,0,0,-0.13333333,0,148.33333)" />
      <path
         id="path15"
         d="M 1572.94,363.602 V 322.84 h 76.25 v -37.832 h -76.25 V 240.43 h 96.78 v -39.004 h -143.7 v 201.179 h 143.7 v -39.003 h -96.78"
         style="fill:#162d37;fill-opacity:1;fill-rule:nonzero;stroke:none"
         transform="matrix(0.13333333,0,0,-0.13333333,0,148.33333)" />
      <path
         id="path16"
         d="m 1758.62,315.508 h 25.81 c 9.67,0 20.23,-0.879 28.74,4.109 7.62,4.688 11.73,14.074 11.73,22.871 0,7.922 -4.7,16.426 -11.44,20.528 -7.92,4.992 -21.41,3.82 -30.21,3.82 h -24.63 z m 0,-114.082 h -46.93 v 201.179 h 84.76 c 17.89,0 36.07,-0.292 51.61,-10.261 16.43,-10.852 25.52,-30.5 25.52,-50.149 0,-22.871 -13.2,-43.992 -34.9,-51.914 l 37.25,-88.855 h -52.21 l -30.79,79.472 h -34.31 v -79.472"
         style="fill:#162d37;fill-opacity:1;fill-rule:nonzero;stroke:none"
         transform="matrix(0.13333333,0,0,-0.13333333,0,148.33333)" />
      <path
         id="path17"
         d="m 1965.7,307.879 63.05,94.726 h 45.17 l -48.39,-71.843 60.41,-129.336 h -51.91 l -39.88,87.097 -28.45,-40.761 v -46.336 h -45.75 v 201.179 h 45.75 v -94.726"
         style="fill:#162d37;fill-opacity:1;fill-rule:nonzero;stroke:none"
         transform="matrix(0.13333333,0,0,-0.13333333,0,148.33333)" />
      <path
         id="path18"
         d="M 2168.38,363.602 V 322.84 h 76.25 v -37.832 h -76.25 V 240.43 h 96.79 v -39.004 h -143.71 v 201.179 h 143.71 v -39.003 h -96.79"
         style="fill:#162d37;fill-opacity:1;fill-rule:nonzero;stroke:none"
         transform="matrix(0.13333333,0,0,-0.13333333,0,148.33333)" />
      <path
         id="path19"
         d="M 2432.95,241.309 V 201.426 H 2305.08 V 402.605 H 2352 V 241.309 h 80.95"
         style="fill:#162d37;fill-opacity:1;fill-rule:nonzero;stroke:none"
         transform="matrix(0.13333333,0,0,-0.13333333,0,148.33333)" />
      <path
         id="path20"
         d="M 2514.5,363.602 V 322.84 h 76.25 V 285.008 H 2514.5 V 240.43 h 96.79 v -39.004 h -143.71 v 201.179 h 143.71 v -39.003 h -96.79"
         style="fill:#162d37;fill-opacity:1;fill-rule:nonzero;stroke:none"
         transform="matrix(0.13333333,0,0,-0.13333333,0,148.33333)" />
      <path
         id="path21"
         d="m 2745.93,286.18 v -84.754 h -46.92 v 84.754 l -63.65,116.425 h 54.55 l 38.72,-76.542 38.12,76.542 h 42.23 L 2745.93,286.18"
         style="fill:#162d37;fill-opacity:1;fill-rule:nonzero;stroke:none"
         transform="matrix(0.13333333,0,0,-0.13333333,0,148.33333)" />
      <path
         id="path22"
         d="m 3072.39,241.309 v -39.883 h -127.87 v 201.179 h 46.93 V 241.309 h 80.94"
         style="fill:#162d37;fill-opacity:1;fill-rule:nonzero;stroke:none"
         transform="matrix(0.13333333,0,0,-0.13333333,0,148.33333)" />
      <path
         id="path23"
         d="m 3210.55,279.727 -21.41,70.683 -21.41,-70.683 z m 73.91,-78.301 h -50.75 l -12.31,41.347 h -65.11 l -12.61,-41.347 h -41.35 l 64.52,201.179 h 54.55 l 63.06,-201.179"
         style="fill:#162d37;fill-opacity:1;fill-rule:nonzero;stroke:none"
         transform="matrix(0.13333333,0,0,-0.13333333,0,148.33333)" />
      <path
         id="path24"
         d="m 3368.96,238.672 h 32.55 c 8.5,0 19.35,-0.586 26.69,4.394 6.74,4.403 10.55,12.618 10.55,20.829 0,7.617 -4.68,15.539 -11.43,19.355 -6.75,3.809 -16.14,3.809 -23.76,3.809 h -34.6 z m 0,84.168 h 31.96 c 8.21,0 17.89,-0.586 24.93,4.687 5.57,4.114 8.51,11.446 8.51,18.184 0,7.336 -3.53,14.375 -9.97,18.184 -6.75,3.82 -19.06,2.941 -26.98,2.941 h -28.45 z m 43.1,79.765 c 15.84,0 32.27,0 46.05,-8.796 16.13,-10.266 24.64,-24.922 24.64,-43.985 0,-22.883 -15.26,-38.125 -36.37,-43.41 v -0.586 c 24.93,-4.98 41.94,-24.043 41.94,-50.144 0,-17.598 -10.56,-33.145 -24.64,-43.411 -14.66,-10.847 -34.31,-10.847 -51.62,-10.847 h -90.03 v 201.179 h 90.03"
         style="fill:#162d37;fill-opacity:1;fill-rule:nonzero;stroke:none"
         transform="matrix(0.13333333,0,0,-0.13333333,0,148.33333)" />
    </g>
  </g>
</svg>
